<svg xmlns="http://www.w3.org/2000/svg" xmlns:xlink="http://www.w3.org/1999/xlink" width="910" height="407.36"><rect width="910" height="407.36" rx="5" ry="5" class="a"/><svg y="0%" x="0%"><circle cx="20" cy="20" r="6" fill="#ff5f58"/><circle cx="40" cy="20" r="6" fill="#ffbd2e"/><circle cx="60" cy="20" r="6" fill="#18c132"/></svg><svg height="347.36" viewBox="0 0 87 34.736" width="870" x="15" xmlns="http://www.w3.org/2000/svg" xmlns:xlink="http://www.w3.org/1999/xlink" y="50"><style>@keyframes o{0%{transform:translateX(0)}.84%{transform:translateX(-87px)}1.09%{transform:translateX(-261px)}10.44%{transform:translateX(-348px)}10.62%{transform:translateX(-435px)}11.66%{transform:translateX(-522px)}12.55%{transform:translateX(-609px)}13.21%{transform:translateX(-696px)}13.63%{transform:translateX(-783px)}13.82%{transform:translateX(-870px)}14.52%{transform:translateX(-957px)}15.78%{transform:translateX(-1044px)}16.32%{transform:translateX(-1131px)}16.9%{transform:translateX(-1218px)}17.41%{transform:translateX(-1305px)}17.8%{transform:translateX(-1392px)}18.78%{transform:translateX(-1479px)}19.04%{transform:translateX(-1566px)}19.23%{transform:translateX(-1653px)}19.39%{transform:translateX(-1740px)}19.87%{transform:translateX(-1827px)}20.48%{transform:translateX(-1914px)}20.96%{transform:translateX(-2001px)}21.3%{transform:translateX(-2088px)}26.08%{transform:translateX(-2175px)}26.21%{transform:translateX(-2262px)}26.64%{transform:translateX(-2349px)}28.99%{transform:translateX(-2436px)}30.34%{transform:translateX(-2523px)}30.59%{transform:translateX(-2610px)}31.09%{transform:translateX(-2697px)}35.97%{transform:translateX(-2784px)}36.19%{transform:translateX(-2871px)}36.57%{transform:translateX(-2958px)}37.15%{transform:translateX(-3393px)}37.62%{transform:translateX(-3654px)}50.29%{transform:translateX(-3741px)}52.71%{transform:translateX(-4002px)}53.18%{transform:translateX(-4089px)}54.76%{transform:translateX(-4350px)}68.68%{transform:translateX(-4437px)}68.69%{transform:translateX(-4611px)}69.15%{transform:translateX(-4872px)}72.25%{transform:translateX(-4959px)}72.6%{transform:translateX(-5046px)}73.39%{transform:translateX(-5133px)}74.37%{transform:translateX(-5220px)}75.14%{transform:translateX(-5307px)}75.64%{transform:translateX(-5394px)}76.15%{transform:translateX(-5481px)}76.45%{transform:translateX(-5568px)}77.21%{transform:translateX(-5655px)}77.5%{transform:translateX(-5742px)}80.16%{transform:translateX(-5829px)}80.77%{transform:translateX(-5916px)}81.63%{transform:translateX(-6003px)}83.84%{transform:translateX(-6090px)}84.34%{transform:translateX(-6177px)}86.78%{transform:translateX(-6264px)}87.32%{transform:translateX(-6351px)}87.68%{transform:translateX(-6438px)}88.03%{transform:translateX(-6525px)}88.37%{transform:translateX(-6612px)}89.02%{transform:translateX(-6699px)}89.37%{transform:translateX(-6786px)}90.27%{transform:translateX(-6873px)}91.07%{transform:translateX(-6960px)}99.16%{transform:translateX(-7134px)}99.17%{transform:translateX(-7308px)}99.64%{transform:translateX(-7569px)}to{transform:translateX(-7656px)}}.a{fill:#282d35}.f,.g,.h,.i{white-space:pre}.f{fill:#71bef2;font-weight:700}.g,.h,.i{fill:#b9bfca}.h,.i{fill:#b9c0cb}.i{fill:#a8cc8c}.j{fill:#e88388}.j,.k,.l{white-space:pre}.k{fill:#dbab79}.l{font-weight:700}.l,.q{fill:#b9c0cb}.r{fill:#282d35;white-space:pre}</style><g font-family="Monaco,Consolas,Menlo,'Bitstream Vera Sans Mono','Powerline Symbols',monospace" font-size="1.67"><defs><symbol id="1"><text y="1.67" class="f">~</text></symbol><symbol id="2"><text y="1.67" class="g">▶</text></symbol><symbol id="3"><text y="1.67" class="g">▶</text><text x="2.004" y="1.67" class="h">cd</text></symbol><symbol id="4"><text y="1.67" class="g">▶</text><text x="2.004" y="1.67" class="h">cd</text><text x="5.01" y="1.67" class="h">R</text></symbol><symbol id="5"><text y="1.67" class="g">▶</text><text x="2.004" y="1.67" class="h">cd</text><text x="5.01" y="1.67" class="h">RE</text></symbol><symbol id="6"><text y="1.67" class="g">▶</text><text x="2.004" y="1.67" class="h">cd</text><text x="5.01" y="1.67" class="h">REP</text></symbol><symbol id="7"><text y="1.67" class="g">▶</text><text x="2.004" y="1.67" class="h">cd</text><text x="5.01" y="1.67" class="h">REPO</text></symbol><symbol id="8"><text y="1.67" class="g">▶</text><text x="2.004" y="1.67" class="h">cd</text><text x="5.01" y="1.67" class="h">$REPOS/github.com/bjerkio/bot</text></symbol><symbol id="9"><text y="1.67" class="f">github.com/bjerkio/bot</text><text x="24.048" y="1.67" class="i">main</text><text x="29.058" y="1.67" class="j">✗</text><text x="80.16" y="1.67" class="g">3m</text><text x="83.166" y="1.67" class="k">⚑</text></symbol><symbol id="10"><text y="1.67" class="g">▶</text><text x="2.004" y="1.67" class="h">gh</text><text x="5.01" y="1.67" class="h">api</text><text x="9.018" y="1.67" class="h">-XPUT</text><text x="15.03" y="1.67" class="h">repos/:owner/:repo/collaborators/bjerk-bot</text></symbol><symbol id="11"><text y="1.67" class="l">{</text></symbol><symbol id="12"><text x="2.004" y="1.67" class="f">&quot;id&quot;</text><text x="6.012" y="1.67" class="l">:</text><text x="8.016" y="1.67" class="h">44182036</text><text x="16.032" y="1.67" class="l">,</text></symbol><symbol id="13"><text x="2.004" y="1.67" class="f">&quot;node_id&quot;</text><text x="11.022" y="1.67" class="l">:</text><text x="13.026" y="1.67" class="i">&quot;MDIwOlJlcG9zaXRvcnlJbnZpdGF0aW9uNDQxODIwMzY=&quot;</text><text x="59.118" y="1.67" class="l">,</text></symbol><symbol id="14"><text x="2.004" y="1.67" class="f">&quot;repository&quot;</text><text x="14.028" y="1.67" class="l">:</text><text x="16.032" y="1.67" class="l">{</text></symbol><symbol id="15"><text x="4.008" y="1.67" class="f">&quot;id&quot;</text><text x="8.016" y="1.67" class="l">:</text><text x="10.02" y="1.67" class="h">357678318</text><text x="19.038" y="1.67" class="l">,</text></symbol><symbol id="16"><text x="4.008" y="1.67" class="f">&quot;node_id&quot;</text><text x="13.026" y="1.67" class="l">:</text><text x="15.03" y="1.67" class="i">&quot;MDEwOlJlcG9zaXRvcnkzNTc2NzgzMTg=&quot;</text><text x="49.098" y="1.67" class="l">,</text></symbol><symbol id="17"><text x="4.008" y="1.67" class="f">&quot;name&quot;</text><text x="10.02" y="1.67" class="l">:</text><text x="12.024" y="1.67" class="i">&quot;bot&quot;</text><text x="17.034" y="1.67" class="l">,</text></symbol><symbol id="18"><text x="4.008" y="1.67" class="f">&quot;full_name&quot;</text><text x="15.03" y="1.67" class="l">:</text><text x="17.034" y="1.67" class="i">&quot;bjerkio/bot&quot;</text><text x="30.06" y="1.67" class="l">,</text></symbol><symbol id="19"><text x="4.008" y="1.67" class="f">&quot;private&quot;</text><text x="13.026" y="1.67" class="l">:</text><text x="15.03" y="1.67" class="k">false</text><text x="20.04" y="1.67" class="l">,</text></symbol><symbol id="20"><text x="4.008" y="1.67" class="f">&quot;owner&quot;</text><text x="11.022" y="1.67" class="l">:</text><text x="13.026" y="1.67" class="l">{</text></symbol><symbol id="21"><text x="6.012" y="1.67" class="f">&quot;login&quot;</text><text x="13.026" y="1.67" class="l">:</text><text x="15.03" y="1.67" class="i">&quot;bjerkio&quot;</text><text x="24.048" y="1.67" class="l">,</text></symbol><symbol id="22"><text x="6.012" y="1.67" class="f">&quot;id&quot;</text><text x="10.02" y="1.67" class="l">:</text><text x="12.024" y="1.67" class="h">39589442</text><text x="20.04" y="1.67" class="l">,</text></symbol><symbol id="23"><text x="6.012" y="1.67" class="f">&quot;node_id&quot;</text><text x="15.03" y="1.67" class="l">:</text><text x="17.034" y="1.67" class="i">&quot;MDEyOk9yZ2FuaXphdGlvbjM5NTg5NDQy&quot;</text><text x="51.102" y="1.67" class="l">,</text></symbol><symbol id="24"><text y="1.67" class="g">▶</text><text x="2.004" y="1.67" class="h">#</text></symbol><symbol id="25"><text y="1.67" class="g">▶</text><text x="2.004" y="1.67" class="h">#</text><text x="4.008" y="1.67" class="h">44182036</text><text x="13.026" y="1.67" class="h">&lt;--</text></symbol><symbol id="26"><text y="1.67" class="g">▶</text><text x="2.004" y="1.67" class="h">#</text><text x="4.008" y="1.67" class="h">44182036</text><text x="13.026" y="1.67" class="h">&lt;--</text><text x="17.034" y="1.67" class="h">I</text></symbol><symbol id="27"><text y="1.67" class="g">▶</text><text x="2.004" y="1.67" class="h">#</text><text x="4.008" y="1.67" class="h">44182036</text><text x="13.026" y="1.67" class="h">&lt;--</text><text x="17.034" y="1.67" class="h">InvitationId</text></symbol><symbol id="a"><path fill="transparent" d="M0 0h87v16H0z"/></symbol><symbol id="b"><path fill="#6f7683" d="M0 0h1.102v2.171H0z"/></symbol></defs><path class="a" d="M0 0h87v34.736H0z"/><g style="animation-duration:25.001101s;animation-iteration-count:infinite;animation-name:o;animation-timing-function:steps(1,end)"><svg width="7743"><svg><use xlink:href="#a"/><use xlink:href="#b" x="-.004"/></svg><svg x="87"><use xlink:href="#a"/><use xlink:href="#b" x="-.004"/></svg><svg x="174"><use xlink:href="#a"/><use xlink:href="#b" x="1.996" y="4.317"/><use xlink:href="#1" y="2.171"/><use xlink:href="#2" y="4.342"/></svg><svg x="261"><use xlink:href="#a"/><use xlink:href="#b" x="1.996" y="4.317"/><use xlink:href="#1" y="2.171"/><use xlink:href="#2" y="4.342"/></svg><svg x="348"><use xlink:href="#a"/><use xlink:href="#b" x="2.996" y="4.317"/><use xlink:href="#1" y="2.171"/><text y="6.012" class="g">▶</text><text x="2.004" y="6.012" class="h">c</text></svg><svg x="435"><use xlink:href="#a"/><use xlink:href="#b" x="3.996" y="4.317"/><use xlink:href="#1" y="2.171"/><use xlink:href="#3" y="4.342"/></svg><svg x="522"><use xlink:href="#a"/><use xlink:href="#b" x="4.996" y="4.317"/><use xlink:href="#1" y="2.171"/><use xlink:href="#3" y="4.342"/></svg><svg x="609"><use xlink:href="#a"/><use xlink:href="#b" x="5.996" y="4.317"/><use xlink:href="#1" y="2.171"/><use xlink:href="#4" y="4.342"/></svg><svg x="696"><use xlink:href="#a"/><use xlink:href="#b" x="6.996" y="4.317"/><use xlink:href="#1" y="2.171"/><use xlink:href="#5" y="4.342"/></svg><svg x="783"><use xlink:href="#a"/><use xlink:href="#b" x="7.996" y="4.317"/><use xlink:href="#1" y="2.171"/><use xlink:href="#6" y="4.342"/></svg><svg x="870"><use xlink:href="#a"/><use xlink:href="#b" x="8.996" y="4.317"/><use xlink:href="#1" y="2.171"/><use xlink:href="#7" y="4.342"/></svg><svg x="957"><use xlink:href="#a"/><use xlink:href="#b" x="8.996" y="4.317"/><use xlink:href="#1" y="2.171"/><use xlink:href="#7" y="4.342"/></svg><svg x="1044"><use xlink:href="#a"/><use xlink:href="#b" x="7.996" y="4.317"/><use xlink:href="#1" y="2.171"/><use xlink:href="#6" y="4.342"/></svg><svg x="1131"><use xlink:href="#a"/><use xlink:href="#b" x="6.996" y="4.317"/><use xlink:href="#1" y="2.171"/><use xlink:href="#5" y="4.342"/></svg><svg x="1218"><use xlink:href="#a"/><use xlink:href="#b" x="5.996" y="4.317"/><use xlink:href="#1" y="2.171"/><use xlink:href="#4" y="4.342"/></svg><svg x="1305"><use xlink:href="#a"/><use xlink:href="#b" x="4.996" y="4.317"/><use xlink:href="#1" y="2.171"/><use xlink:href="#3" y="4.342"/></svg><svg x="1392"><use xlink:href="#a"/><use xlink:href="#b" x="5.996" y="4.317"/><use xlink:href="#1" y="2.171"/><text y="6.012" class="g">▶</text><text x="2.004" y="6.012" class="h">cd</text><text x="5.01" y="6.012" class="h">$</text></svg><svg x="1479"><use xlink:href="#a"/><use xlink:href="#b" x="6.996" y="4.317"/><use xlink:href="#1" y="2.171"/><text y="6.012" class="g">▶</text><text x="2.004" y="6.012" class="h">cd</text><text x="5.01" y="6.012" class="h">$R</text></svg><svg x="1566"><use xlink:href="#a"/><use xlink:href="#b" x="7.996" y="4.317"/><use xlink:href="#1" y="2.171"/><text y="6.012" class="g">▶</text><text x="2.004" y="6.012" class="h">cd</text><text x="5.01" y="6.012" class="h">$RE</text></svg><svg x="1653"><use xlink:href="#a"/><use xlink:href="#b" x="8.996" y="4.317"/><use xlink:href="#1" y="2.171"/><text y="6.012" class="g">▶</text><text x="2.004" y="6.012" class="h">cd</text><text x="5.01" y="6.012" class="h">$REP</text></svg><svg x="1740"><use xlink:href="#a"/><use xlink:href="#b" x="9.996" y="4.317"/><use xlink:href="#1" y="2.171"/><text y="6.012" class="g">▶</text><text x="2.004" y="6.012" class="h">cd</text><text x="5.01" y="6.012" class="h">$REPo</text></svg><svg x="1827"><use xlink:href="#a"/><use xlink:href="#b" x="11.996" y="4.317"/><use xlink:href="#1" y="2.171"/><text y="6.012" class="g">▶</text><text x="2.004" y="6.012" class="h">cd</text><text x="5.01" y="6.012" class="h">$REPOS</text><text x="11.022" y="6.012" class="l">/</text></svg><svg x="1914"><use xlink:href="#a"/><use xlink:href="#b" x="12.996" y="4.317"/><use xlink:href="#1" y="2.171"/><text y="6.012" class="g">▶</text><text x="2.004" y="6.012" class="h">cd</text><text x="5.01" y="6.012" class="h">$REPOS/g</text></svg><svg x="2001"><use xlink:href="#a"/><use xlink:href="#b" x="13.996" y="4.317"/><use xlink:href="#1" y="2.171"/><text y="6.012" class="g">▶</text><text x="2.004" y="6.012" class="h">cd</text><text x="5.01" y="6.012" class="h">$REPOS/gi</text></svg><svg x="2088"><use xlink:href="#a"/><use xlink:href="#b" x="22.996" y="4.317"/><use xlink:href="#1" y="2.171"/><text y="6.012" class="g">▶</text><text x="2.004" y="6.012" class="h">cd</text><text x="5.01" y="6.012" class="h">$REPOS/github.com</text><text x="22.044" y="6.012" class="l">/</text></svg><svg x="2175"><use xlink:href="#a"/><use xlink:href="#b" x="23.996" y="4.317"/><use xlink:href="#1" y="2.171"/><text y="6.012" class="g">▶</text><text x="2.004" y="6.012" class="h">cd</text><text x="5.01" y="6.012" class="h">$REPOS/github.com/c</text></svg><svg x="2262"><use xlink:href="#a"/><use xlink:href="#b" x="24.996" y="4.317"/><use xlink:href="#1" y="2.171"/><text y="6.012" class="g">▶</text><text x="2.004" y="6.012" class="h">cd</text><text x="5.01" y="6.012" class="h">$REPOS/github.com/co</text></svg><svg x="2349"><use xlink:href="#a"/><use xlink:href="#b" x="29.996" y="4.317"/><use xlink:href="#1" y="2.171"/><text y="6.012" class="g">▶</text><text x="2.004" y="6.012" class="h">cd</text><text x="5.01" y="6.012" class="h">$REPOS/github.com/cobraz</text><text x="29.058" y="6.012" class="l">/</text></svg><svg x="2436"><use xlink:href="#a"/><use xlink:href="#b" x="22.996" y="4.317"/><use xlink:href="#1" y="2.171"/><text y="6.012" class="g">▶</text><text x="2.004" y="6.012" class="h">cd</text><text x="5.01" y="6.012" class="h">$REPOS/github.com/</text></svg><svg x="2523"><use xlink:href="#a"/><use xlink:href="#b" x="23.996" y="4.317"/><use xlink:href="#1" y="2.171"/><text y="6.012" class="g">▶</text><text x="2.004" y="6.012" class="h">cd</text><text x="5.01" y="6.012" class="h">$REPOS/github.com/b</text></svg><svg x="2610"><use xlink:href="#a"/><use xlink:href="#b" x="24.996" y="4.317"/><use xlink:href="#1" y="2.171"/><text y="6.012" class="g">▶</text><text x="2.004" y="6.012" class="h">cd</text><text x="5.01" y="6.012" class="h">$REPOS/github.com/bj</text></svg><svg x="2697"><use xlink:href="#a"/><use xlink:href="#b" x="30.996" y="4.317"/><use xlink:href="#1" y="2.171"/><text y="6.012" class="g">▶</text><text x="2.004" y="6.012" class="h">cd</text><text x="5.01" y="6.012" class="h">$REPOS/github.com/bjerkio</text><text x="30.06" y="6.012" class="l">/</text></svg><svg x="2784"><use xlink:href="#a"/><use xlink:href="#b" x="31.996" y="4.317"/><use xlink:href="#1" y="2.171"/><text y="6.012" class="g">▶</text><text x="2.004" y="6.012" class="h">cd</text><text x="5.01" y="6.012" class="h">$REPOS/github.com/bjerkio/b</text></svg><svg x="2871"><use xlink:href="#a"/><use xlink:href="#b" x="32.996" y="4.317"/><use xlink:href="#1" y="2.171"/><text y="6.012" class="g">▶</text><text x="2.004" y="6.012" class="h">cd</text><text x="5.01" y="6.012" class="h">$REPOS/github.com/bjerkio/bo</text></svg><svg x="2958"><use xlink:href="#a"/><use xlink:href="#b" x="34.996" y="4.317"/><use xlink:href="#1" y="2.171"/><text y="6.012" class="g">▶</text><text x="2.004" y="6.012" class="h">cd</text><text x="5.01" y="6.012" class="h">$REPOS/github.com/bjerkio/bot</text><text x="34.068" y="6.012" class="l">/</text></svg><svg x="3045"><use xlink:href="#a"/><use xlink:href="#b" x="33.996" y="4.317"/><use xlink:href="#1" y="2.171"/><use xlink:href="#8" y="4.342"/></svg><svg x="3132"><use xlink:href="#a"/><use xlink:href="#b" x="-.004" y="6.488"/><use xlink:href="#1" y="2.171"/><use xlink:href="#8" y="4.342"/></svg><svg x="3219"><use xlink:href="#a"/><use xlink:href="#b" x="-.004" y="6.488"/><use xlink:href="#1" y="2.171"/><use xlink:href="#8" y="4.342"/></svg><svg x="3306"><use xlink:href="#a"/><use xlink:href="#b" x="-.004" y="6.488"/><use xlink:href="#1" y="2.171"/><use xlink:href="#8" y="4.342"/></svg><svg x="3393"><use xlink:href="#a"/><use xlink:href="#b" x="-.004" y="6.488"/><use xlink:href="#1" y="2.171"/><use xlink:href="#8" y="4.342"/></svg><svg x="3480"><use xlink:href="#a"/><use xlink:href="#b" x="1.996" y="10.83"/><use xlink:href="#1" y="2.171"/><use xlink:href="#8" y="4.342"/><text y="10.354" class="f">github.com/bjerkio/bot</text><text x="24.048" y="10.354" class="i">main</text><text x="29.058" y="10.354" class="j">✗</text><use xlink:href="#2" y="10.855"/></svg><svg x="3567"><use xlink:href="#a"/><use xlink:href="#b" x="1.996" y="10.83"/><use xlink:href="#1" y="2.171"/><use xlink:href="#8" y="4.342"/><use xlink:href="#9" y="8.684"/><use xlink:href="#2" y="10.855"/></svg><svg x="3654"><use xlink:href="#a"/><use xlink:href="#b" x="1.996" y="10.83"/><use xlink:href="#1" y="2.171"/><use xlink:href="#8" y="4.342"/><use xlink:href="#9" y="8.684"/><use xlink:href="#2" y="10.855"/></svg><svg x="3741"><use xlink:href="#a"/><use xlink:href="#b" x="56.996" y="10.83"/><use xlink:href="#1" y="2.171"/><use xlink:href="#8" y="4.342"/><use xlink:href="#9" y="8.684"/><text y="12.525" class="g">▶</text><path class="q" d="M2.004 10.855h55v2.171h-55z"/><text x="2.004" y="12.525" class="r">gh api -XPUT repos/:owner/:repo/collaborators/bjerk-bot</text></svg><svg x="3828"><use xlink:href="#a"/><use xlink:href="#b" x="56.996" y="10.83"/><use xlink:href="#1" y="2.171"/><use xlink:href="#8" y="4.342"/><use xlink:href="#9" y="8.684"/><use xlink:href="#10" y="10.855"/></svg><svg x="3915"><use xlink:href="#a"/><use xlink:href="#b" x="-.004" y="13.001"/><use xlink:href="#1" y="2.171"/><use xlink:href="#8" y="4.342"/><use xlink:href="#9" y="8.684"/><use xlink:href="#10" y="10.855"/></svg><svg x="4002"><use xlink:href="#a"/><use xlink:href="#b" x="-.004" y="13.001"/><use xlink:href="#1" y="2.171"/><use xlink:href="#8" y="4.342"/><use xlink:href="#9" y="8.684"/><use xlink:href="#10" y="10.855"/></svg><svg x="4089"><use xlink:href="#a"/><use xlink:href="#b" x="-.004" y="13.001"/></svg><svg x="4176"><use xlink:href="#a"/><use xlink:href="#b" x="-.004" y="15.172"/><use xlink:href="#11" y="13.026"/></svg><svg x="4263"><use xlink:href="#a"/><use xlink:href="#b" x="-.004" y="32.54"/><use xlink:href="#11" y="4.342"/><use xlink:href="#12" y="6.513"/><use xlink:href="#13" y="8.684"/><use xlink:href="#14" y="10.855"/><use xlink:href="#15" y="13.026"/><use xlink:href="#16" y="15.197"/><use xlink:href="#17" y="17.368"/><use xlink:href="#18" y="19.539"/><use xlink:href="#19" y="21.71"/><use xlink:href="#20" y="23.881"/><use xlink:href="#21" y="26.052"/><use xlink:href="#22" y="28.223"/><use xlink:href="#23" y="30.394"/></svg><svg x="4350"><use xlink:href="#a"/><use xlink:href="#b" x=".996" y="32.54"/><use xlink:href="#11"/><use xlink:href="#12" y="2.171"/><use xlink:href="#13" y="4.342"/><use xlink:href="#14" y="6.513"/><use xlink:href="#15" y="8.684"/><use xlink:href="#16" y="10.855"/><use xlink:href="#17" y="13.026"/><use xlink:href="#18" y="15.197"/><use xlink:href="#19" y="17.368"/><use xlink:href="#20" y="19.539"/><use xlink:href="#21" y="21.71"/><use xlink:href="#22" y="23.881"/><use xlink:href="#23" y="26.052"/><text x="6.012" y="29.893" class="f">&quot;avatar_url&quot;</text><text x="18.036" y="29.893" class="l">:</text><text x="20.04" y="29.893" class="i">&quot;https://avatars.githubusercontent.com/u/39589442?v=4&quot;</text><text x="74.148" y="29.893" class="l">,</text><text x="6.012" y="32.064" class="f">&quot;gravatar_id&quot;</text><text x="19.038" y="32.064" class="l">:</text><text x="21.042" y="32.064" class="i">&quot;&quot;</text><text x="23.046" y="32.064" class="l">,</text><text y="34.235" class="h">:</text></svg><svg x="4437"><use xlink:href="#a"/><use xlink:href="#b" x="-.004" y="13.001"/><use xlink:href="#1" y="2.171"/><use xlink:href="#8" y="4.342"/><use xlink:href="#9" y="8.684"/><use xlink:href="#10" y="10.855"/></svg><svg x="4524"><use xlink:href="#a"/><use xlink:href="#b" x="-.004" y="13.001"/><use xlink:href="#1" y="2.171"/><use xlink:href="#8" y="4.342"/><use xlink:href="#9" y="8.684"/><use xlink:href="#10" y="10.855"/></svg><svg x="4611"><use xlink:href="#a"/><use xlink:href="#b" x="-.004" y="13.001"/><use xlink:href="#1" y="2.171"/><use xlink:href="#8" y="4.342"/><use xlink:href="#9" y="8.684"/><use xlink:href="#10" y="10.855"/></svg><svg x="4698"><use xlink:href="#a"/><use xlink:href="#b" x="1.996" y="17.343"/><use xlink:href="#1" y="2.171"/><use xlink:href="#8" y="4.342"/><use xlink:href="#9" y="8.684"/><use xlink:href="#10" y="10.855"/><use xlink:href="#9" y="15.197"/><use xlink:href="#2" y="17.368"/></svg><svg x="4785"><use xlink:href="#a"/><use xlink:href="#b" x="1.996" y="17.343"/><use xlink:href="#1" y="2.171"/><use xlink:href="#8" y="4.342"/><use xlink:href="#9" y="8.684"/><use xlink:href="#10" y="10.855"/><use xlink:href="#9" y="15.197"/><use xlink:href="#2" y="17.368"/></svg><svg x="4872"><use xlink:href="#a"/><use xlink:href="#b" x="1.996" y="17.343"/><use xlink:href="#1" y="2.171"/><use xlink:href="#8" y="4.342"/><use xlink:href="#9" y="8.684"/><use xlink:href="#10" y="10.855"/><use xlink:href="#9" y="15.197"/><use xlink:href="#2" y="17.368"/></svg><svg x="4959"><use xlink:href="#a"/><use xlink:href="#b" x="2.996" y="17.343"/><use xlink:href="#1" y="2.171"/><use xlink:href="#8" y="4.342"/><use xlink:href="#9" y="8.684"/><use xlink:href="#10" y="10.855"/><use xlink:href="#9" y="15.197"/><use xlink:href="#24" y="17.368"/></svg><svg x="5046"><use xlink:href="#a"/><use xlink:href="#b" x="3.996" y="17.343"/><use xlink:href="#1" y="2.171"/><use xlink:href="#8" y="4.342"/><use xlink:href="#9" y="8.684"/><use xlink:href="#10" y="10.855"/><use xlink:href="#9" y="15.197"/><use xlink:href="#24" y="17.368"/></svg><svg x="5133"><use xlink:href="#a"/><use xlink:href="#b" x="11.996" y="17.343"/><use xlink:href="#1" y="2.171"/><use xlink:href="#8" y="4.342"/><use xlink:href="#9" y="8.684"/><use xlink:href="#10" y="10.855"/><use xlink:href="#9" y="15.197"/><text y="19.038" class="g">▶</text><text x="2.004" y="19.038" class="h">#</text><path class="q" d="M4.008 17.368h8v2.171h-8z"/><text x="4.008" y="19.038" class="r">44182036</text></svg><svg x="5220"><use xlink:href="#a"/><use xlink:href="#b" x="12.996" y="17.343"/><use xlink:href="#1" y="2.171"/><use xlink:href="#8" y="4.342"/><use xlink:href="#9" y="8.684"/><use xlink:href="#10" y="10.855"/><use xlink:href="#9" y="15.197"/><text y="19.038" class="g">▶</text><text x="2.004" y="19.038" class="h">#</text><text x="4.008" y="19.038" class="h">44182036</text></svg><svg x="5307"><use xlink:href="#a"/><use xlink:href="#b" x="13.996" y="17.343"/><use xlink:href="#1" y="2.171"/><use xlink:href="#8" y="4.342"/><use xlink:href="#9" y="8.684"/><use xlink:href="#10" y="10.855"/><use xlink:href="#9" y="15.197"/><text y="19.038" class="g">▶</text><text x="2.004" y="19.038" class="h">#</text><text x="4.008" y="19.038" class="h">44182036</text><text x="13.026" y="19.038" class="h">&lt;</text></svg><svg x="5394"><use xlink:href="#a"/><use xlink:href="#b" x="14.996" y="17.343"/><use xlink:href="#1" y="2.171"/><use xlink:href="#8" y="4.342"/><use xlink:href="#9" y="8.684"/><use xlink:href="#10" y="10.855"/><use xlink:href="#9" y="15.197"/><text y="19.038" class="g">▶</text><text x="2.004" y="19.038" class="h">#</text><text x="4.008" y="19.038" class="h">44182036</text><text x="13.026" y="19.038" class="h">&lt;-</text></svg><svg x="5481"><use xlink:href="#a"/><use xlink:href="#b" x="15.996" y="17.343"/><use xlink:href="#1" y="2.171"/><use xlink:href="#8" y="4.342"/><use xlink:href="#9" y="8.684"/><use xlink:href="#10" y="10.855"/><use xlink:href="#9" y="15.197"/><use xlink:href="#25" y="17.368"/></svg><svg x="5568"><use xlink:href="#a"/><use xlink:href="#b" x="16.996" y="17.343"/><use xlink:href="#1" y="2.171"/><use xlink:href="#8" y="4.342"/><use xlink:href="#9" y="8.684"/><use xlink:href="#10" y="10.855"/><use xlink:href="#9" y="15.197"/><use xlink:href="#25" y="17.368"/></svg><svg x="5655"><use xlink:href="#a"/><use xlink:href="#b" x="17.996" y="17.343"/><use xlink:href="#1" y="2.171"/><use xlink:href="#8" y="4.342"/><use xlink:href="#9" y="8.684"/><use xlink:href="#10" y="10.855"/><use xlink:href="#9" y="15.197"/><use xlink:href="#26" y="17.368"/></svg><svg x="5742"><use xlink:href="#a"/><use xlink:href="#b" x="18.996" y="17.343"/><use xlink:href="#1" y="2.171"/><use xlink:href="#8" y="4.342"/><use xlink:href="#9" y="8.684"/><use xlink:href="#10" y="10.855"/><use xlink:href="#9" y="15.197"/><text y="19.038" class="g">▶</text><text x="2.004" y="19.038" class="h">#</text><text x="4.008" y="19.038" class="h">44182036</text><text x="13.026" y="19.038" class="h">&lt;--</text><text x="17.034" y="19.038" class="h">ID</text></svg><svg x="5829"><use xlink:href="#a"/><use xlink:href="#b" x="17.996" y="17.343"/><use xlink:href="#1" y="2.171"/><use xlink:href="#8" y="4.342"/><use xlink:href="#9" y="8.684"/><use xlink:href="#10" y="10.855"/><use xlink:href="#9" y="15.197"/><use xlink:href="#26" y="17.368"/></svg><svg x="5916"><use xlink:href="#a"/><use xlink:href="#b" x="16.996" y="17.343"/><use xlink:href="#1" y="2.171"/><use xlink:href="#8" y="4.342"/><use xlink:href="#9" y="8.684"/><use xlink:href="#10" y="10.855"/><use xlink:href="#9" y="15.197"/><use xlink:href="#25" y="17.368"/></svg><svg x="6003"><use xlink:href="#a"/><use xlink:href="#b" x="17.996" y="17.343"/><use xlink:href="#1" y="2.171"/><use xlink:href="#8" y="4.342"/><use xlink:href="#9" y="8.684"/><use xlink:href="#10" y="10.855"/><use xlink:href="#9" y="15.197"/><use xlink:href="#26" y="17.368"/></svg><svg x="6090"><use xlink:href="#a"/><use xlink:href="#b" x="18.996" y="17.343"/><use xlink:href="#1" y="2.171"/><use xlink:href="#8" y="4.342"/><use xlink:href="#9" y="8.684"/><use xlink:href="#10" y="10.855"/><use xlink:href="#9" y="15.197"/><text y="19.038" class="g">▶</text><text x="2.004" y="19.038" class="h">#</text><text x="4.008" y="19.038" class="h">44182036</text><text x="13.026" y="19.038" class="h">&lt;--</text><text x="17.034" y="19.038" class="h">In</text></svg><svg x="6177"><use xlink:href="#a"/><use xlink:href="#b" x="19.996" y="17.343"/><use xlink:href="#1" y="2.171"/><use xlink:href="#8" y="4.342"/><use xlink:href="#9" y="8.684"/><use xlink:href="#10" y="10.855"/><use xlink:href="#9" y="15.197"/><text y="19.038" class="g">▶</text><text x="2.004" y="19.038" class="h">#</text><text x="4.008" y="19.038" class="h">44182036</text><text x="13.026" y="19.038" class="h">&lt;--</text><text x="17.034" y="19.038" class="h">Inv</text></svg><svg x="6264"><use xlink:href="#a"/><use xlink:href="#b" x="20.996" y="17.343"/><use xlink:href="#1" y="2.171"/><use xlink:href="#8" y="4.342"/><use xlink:href="#9" y="8.684"/><use xlink:href="#10" y="10.855"/><use xlink:href="#9" y="15.197"/><text y="19.038" class="g">▶</text><text x="2.004" y="19.038" class="h">#</text><text x="4.008" y="19.038" class="h">44182036</text><text x="13.026" y="19.038" class="h">&lt;--</text><text x="17.034" y="19.038" class="h">Invi</text></svg><svg x="6351"><use xlink:href="#a"/><use xlink:href="#b" x="21.996" y="17.343"/><use xlink:href="#1" y="2.171"/><use xlink:href="#8" y="4.342"/><use xlink:href="#9" y="8.684"/><use xlink:href="#10" y="10.855"/><use xlink:href="#9" y="15.197"/><text y="19.038" class="g">▶</text><text x="2.004" y="19.038" class="h">#</text><text x="4.008" y="19.038" class="h">44182036</text><text x="13.026" y="19.038" class="h">&lt;--</text><text x="17.034" y="19.038" class="h">Invit</text></svg><svg x="6438"><use xlink:href="#a"/><use xlink:href="#b" x="22.996" y="17.343"/><use xlink:href="#1" y="2.171"/><use xlink:href="#8" y="4.342"/><use xlink:href="#9" y="8.684"/><use xlink:href="#10" y="10.855"/><use xlink:href="#9" y="15.197"/><text y="19.038" class="g">▶</text><text x="2.004" y="19.038" class="h">#</text><text x="4.008" y="19.038" class="h">44182036</text><text x="13.026" y="19.038" class="h">&lt;--</text><text x="17.034" y="19.038" class="h">Invita</text></svg><svg x="6525"><use xlink:href="#a"/><use xlink:href="#b" x="23.996" y="17.343"/><use xlink:href="#1" y="2.171"/><use xlink:href="#8" y="4.342"/><use xlink:href="#9" y="8.684"/><use xlink:href="#10" y="10.855"/><use xlink:href="#9" y="15.197"/><text y="19.038" class="g">▶</text><text x="2.004" y="19.038" class="h">#</text><text x="4.008" y="19.038" class="h">44182036</text><text x="13.026" y="19.038" class="h">&lt;--</text><text x="17.034" y="19.038" class="h">Invitat</text></svg><svg x="6612"><use xlink:href="#a"/><use xlink:href="#b" x="24.996" y="17.343"/><use xlink:href="#1" y="2.171"/><use xlink:href="#8" y="4.342"/><use xlink:href="#9" y="8.684"/><use xlink:href="#10" y="10.855"/><use xlink:href="#9" y="15.197"/><text y="19.038" class="g">▶</text><text x="2.004" y="19.038" class="h">#</text><text x="4.008" y="19.038" class="h">44182036</text><text x="13.026" y="19.038" class="h">&lt;--</text><text x="17.034" y="19.038" class="h">Invitati</text></svg><svg x="6699"><use xlink:href="#a"/><use xlink:href="#b" x="25.996" y="17.343"/><use xlink:href="#1" y="2.171"/><use xlink:href="#8" y="4.342"/><use xlink:href="#9" y="8.684"/><use xlink:href="#10" y="10.855"/><use xlink:href="#9" y="15.197"/><text y="19.038" class="g">▶</text><text x="2.004" y="19.038" class="h">#</text><text x="4.008" y="19.038" class="h">44182036</text><text x="13.026" y="19.038" class="h">&lt;--</text><text x="17.034" y="19.038" class="h">Invitatio</text></svg><svg x="6786"><use xlink:href="#a"/><use xlink:href="#b" x="26.996" y="17.343"/><use xlink:href="#1" y="2.171"/><use xlink:href="#8" y="4.342"/><use xlink:href="#9" y="8.684"/><use xlink:href="#10" y="10.855"/><use xlink:href="#9" y="15.197"/><text y="19.038" class="g">▶</text><text x="2.004" y="19.038" class="h">#</text><text x="4.008" y="19.038" class="h">44182036</text><text x="13.026" y="19.038" class="h">&lt;--</text><text x="17.034" y="19.038" class="h">Invitation</text></svg><svg x="6873"><use xlink:href="#a"/><use xlink:href="#b" x="27.996" y="17.343"/><use xlink:href="#1" y="2.171"/><use xlink:href="#8" y="4.342"/><use xlink:href="#9" y="8.684"/><use xlink:href="#10" y="10.855"/><use xlink:href="#9" y="15.197"/><text y="19.038" class="g">▶</text><text x="2.004" y="19.038" class="h">#</text><text x="4.008" y="19.038" class="h">44182036</text><text x="13.026" y="19.038" class="h">&lt;--</text><text x="17.034" y="19.038" class="h">InvitationI</text></svg><svg x="6960"><use xlink:href="#a"/><use xlink:href="#b" x="28.996" y="17.343"/><use xlink:href="#1" y="2.171"/><use xlink:href="#8" y="4.342"/><use xlink:href="#9" y="8.684"/><use xlink:href="#10" y="10.855"/><use xlink:href="#9" y="15.197"/><use xlink:href="#27" y="17.368"/></svg><svg x="7047"><use xlink:href="#a"/><use xlink:href="#b" x="28.996" y="17.343"/><use xlink:href="#1" y="2.171"/><use xlink:href="#8" y="4.342"/><use xlink:href="#9" y="8.684"/><use xlink:href="#10" y="10.855"/><use xlink:href="#9" y="15.197"/><use xlink:href="#27" y="17.368"/></svg><svg x="7134"><use xlink:href="#a"/><use xlink:href="#b" x="-.004" y="19.514"/><use xlink:href="#1" y="2.171"/><use xlink:href="#8" y="4.342"/><use xlink:href="#9" y="8.684"/><use xlink:href="#10" y="10.855"/><use xlink:href="#9" y="15.197"/><use xlink:href="#27" y="17.368"/></svg><svg x="7221"><use xlink:href="#a"/><use xlink:href="#b" x="-.004" y="19.514"/><use xlink:href="#1" y="2.171"/><use xlink:href="#8" y="4.342"/><use xlink:href="#9" y="8.684"/><use xlink:href="#10" y="10.855"/><use xlink:href="#9" y="15.197"/><use xlink:href="#27" y="17.368"/></svg><svg x="7308"><use xlink:href="#a"/><use xlink:href="#b" x="-.004" y="19.514"/><use xlink:href="#1" y="2.171"/><use xlink:href="#8" y="4.342"/><use xlink:href="#9" y="8.684"/><use xlink:href="#10" y="10.855"/><use xlink:href="#9" y="15.197"/><use xlink:href="#27" y="17.368"/></svg><svg x="7395"><use xlink:href="#a"/><use xlink:href="#b" x="1.996" y="23.856"/><use xlink:href="#1" y="2.171"/><use xlink:href="#8" y="4.342"/><use xlink:href="#9" y="8.684"/><use xlink:href="#10" y="10.855"/><use xlink:href="#9" y="15.197"/><use xlink:href="#27" y="17.368"/><use xlink:href="#9" y="21.71"/><use xlink:href="#2" y="23.881"/></svg><svg x="7482"><use xlink:href="#a"/><use xlink:href="#b" x="1.996" y="23.856"/><use xlink:href="#1" y="2.171"/><use xlink:href="#8" y="4.342"/><use xlink:href="#9" y="8.684"/><use xlink:href="#10" y="10.855"/><use xlink:href="#9" y="15.197"/><use xlink:href="#27" y="17.368"/><use xlink:href="#9" y="21.71"/><use xlink:href="#2" y="23.881"/></svg><svg x="7569"><use xlink:href="#a"/><use xlink:href="#b" x="1.996" y="23.856"/><use xlink:href="#1" y="2.171"/><use xlink:href="#8" y="4.342"/><use xlink:href="#9" y="8.684"/><use xlink:href="#10" y="10.855"/><use xlink:href="#9" y="15.197"/><use xlink:href="#27" y="17.368"/><use xlink:href="#9" y="21.71"/><use xlink:href="#2" y="23.881"/></svg><svg x="7656"><use xlink:href="#a"/><use xlink:href="#b" x="-.004" y="26.027"/><use xlink:href="#1" y="2.171"/><use xlink:href="#8" y="4.342"/><use xlink:href="#9" y="8.684"/><use xlink:href="#10" y="10.855"/><use xlink:href="#9" y="15.197"/><use xlink:href="#27" y="17.368"/><use xlink:href="#9" y="21.71"/><use xlink:href="#2" y="23.881"/></svg></svg></g></g></svg></svg>