<svg xmlns="http://www.w3.org/2000/svg" xmlns:xlink="http://www.w3.org/1999/xlink" width="780" height="385.65"><rect width="780" height="385.65" rx="5" ry="5" class="a"/><svg y="0%" x="0%"><circle cx="20" cy="20" r="6" fill="#ff5f58"/><circle cx="40" cy="20" r="6" fill="#ffbd2e"/><circle cx="60" cy="20" r="6" fill="#18c132"/></svg><svg height="325.65" viewBox="0 0 74 32.565" width="740" x="15" xmlns="http://www.w3.org/2000/svg" xmlns:xlink="http://www.w3.org/1999/xlink" y="50"><style>@keyframes m{0%{transform:translateX(0)}1.3%{transform:translateX(-148px)}1.7%{transform:translateX(-296px)}8.1%{transform:translateX(-370px)}8.4%{transform:translateX(-444px)}8.9%{transform:translateX(-518px)}10.3%{transform:translateX(-592px)}11.4%{transform:translateX(-666px)}11.9%{transform:translateX(-740px)}12%{transform:translateX(-814px)}12.4%{transform:translateX(-888px)}13.5%{transform:translateX(-962px)}14.3%{transform:translateX(-1036px)}15.3%{transform:translateX(-1110px)}25%{transform:translateX(-1184px)}25.6%{transform:translateX(-1258px)}26.3%{transform:translateX(-1332px)}28.4%{transform:translateX(-1406px)}28.9%{transform:translateX(-1480px)}29.5%{transform:translateX(-1554px)}30.4%{transform:translateX(-1998px)}31.2%{transform:translateX(-2220px)}58.2%{transform:translateX(-2294px)}63%{transform:translateX(-2516px)}63.3%{transform:translateX(-2590px)}65.8%{transform:translateX(-2738px)}89.3%{transform:translateX(-2960px)}90%{transform:translateX(-3108px)}to{transform:translateX(-3182px)}}.a{fill:#282d35}.f{fill:#71bef2;font-weight:700;white-space:pre}.g,.h,.i,.j{fill:#b9bfca;white-space:pre}.h,.i,.j{fill:#b9c0cb}.i,.j{fill:#a8cc8c}.j{fill:#b9c0cb;font-weight:700}</style><g font-family="Monaco,Consolas,Menlo,'Bitstream Vera Sans Mono','Powerline Symbols',monospace" font-size="1.67"><defs><symbol id="1"><text y="1.67" class="f">~</text></symbol><symbol id="2"><text y="1.67" class="g">▶</text></symbol><symbol id="3"><text y="1.67" class="g">▶</text><text x="2.004" y="1.67" class="h">cd</text></symbol><symbol id="4"><text y="1.67" class="g">▶</text><text x="2.004" y="1.67" class="h">cd</text><text x="5.01" y="1.67" class="h">$REPOS/github.com/bjerkio/bot</text></symbol><symbol id="5"><text y="1.67" class="f">github.com/bjerkio/bot</text><text x="24.048" y="1.67" class="i">main</text><text x="29.058" y="1.67" class="i">✔</text><text x="69.138" y="1.67" class="g">1m</text></symbol><symbol id="6"><text y="1.67" class="g">▶</text><text x="2.004" y="1.67" class="h">gh</text><text x="5.01" y="1.67" class="h">api</text><text x="9.018" y="1.67" class="h">-XPUT</text><text x="15.03" y="1.67" class="h">repos/:owner/:repo/collaborators/bjerk-bot</text></symbol><symbol id="7"><text y="1.67" class="j">{</text></symbol><symbol id="8"><text x="2.004" y="1.67" class="f">&quot;id&quot;</text><text x="6.012" y="1.67" class="j">:</text><text x="8.016" y="1.67" class="h">44182036</text><text x="16.032" y="1.67" class="j">,</text></symbol><symbol id="a"><path fill="transparent" d="M0 0h74v15H0z"/></symbol><symbol id="b"><path fill="#6f7683" d="M0 0h1.102v2.171H0z"/></symbol></defs><path class="a" d="M0 0h74v32.565H0z"/><g style="animation-duration:16.65065s;animation-iteration-count:infinite;animation-name:m;animation-timing-function:steps(1,end)"><svg width="3256"><svg><use xlink:href="#a"/><use xlink:href="#b" x="-.004"/></svg><svg x="74"><use xlink:href="#a"/><use xlink:href="#b" x="-.004"/></svg><svg x="148"><use xlink:href="#a"/><use xlink:href="#b" x="-.004"/></svg><svg x="222"><use xlink:href="#a"/><use xlink:href="#b" x="1.996" y="4.317"/><use xlink:href="#1" y="2.171"/><use xlink:href="#2" y="4.342"/></svg><svg x="296"><use xlink:href="#a"/><use xlink:href="#b" x="1.996" y="4.317"/><use xlink:href="#1" y="2.171"/><use xlink:href="#2" y="4.342"/></svg><svg x="370"><use xlink:href="#a"/><use xlink:href="#b" x="2.996" y="4.317"/><use xlink:href="#1" y="2.171"/><text y="6.012" class="g">▶</text><text x="2.004" y="6.012" class="h">c</text></svg><svg x="444"><use xlink:href="#a"/><use xlink:href="#b" x="3.996" y="4.317"/><use xlink:href="#1" y="2.171"/><use xlink:href="#3" y="4.342"/></svg><svg x="518"><use xlink:href="#a"/><use xlink:href="#b" x="4.996" y="4.317"/><use xlink:href="#1" y="2.171"/><use xlink:href="#3" y="4.342"/></svg><svg x="592"><use xlink:href="#a"/><use xlink:href="#b" x="5.996" y="4.317"/><use xlink:href="#1" y="2.171"/><text y="6.012" class="g">▶</text><text x="2.004" y="6.012" class="h">cd</text><text x="5.01" y="6.012" class="h">$</text></svg><svg x="666"><use xlink:href="#a"/><use xlink:href="#b" x="6.996" y="4.317"/><use xlink:href="#1" y="2.171"/><text y="6.012" class="g">▶</text><text x="2.004" y="6.012" class="h">cd</text><text x="5.01" y="6.012" class="h">$R</text></svg><svg x="740"><use xlink:href="#a"/><use xlink:href="#b" x="7.996" y="4.317"/><use xlink:href="#1" y="2.171"/><text y="6.012" class="g">▶</text><text x="2.004" y="6.012" class="h">cd</text><text x="5.01" y="6.012" class="h">$RE</text></svg><svg x="814"><use xlink:href="#a"/><use xlink:href="#b" x="8.996" y="4.317"/><use xlink:href="#1" y="2.171"/><text y="6.012" class="g">▶</text><text x="2.004" y="6.012" class="h">cd</text><text x="5.01" y="6.012" class="h">$REP</text></svg><svg x="888"><use xlink:href="#a"/><use xlink:href="#b" x="9.996" y="4.317"/><use xlink:href="#1" y="2.171"/><text y="6.012" class="g">▶</text><text x="2.004" y="6.012" class="h">cd</text><text x="5.01" y="6.012" class="h">$REPO</text></svg><svg x="962"><use xlink:href="#a"/><use xlink:href="#b" x="11.996" y="4.317"/><use xlink:href="#1" y="2.171"/><text y="6.012" class="g">▶</text><text x="2.004" y="6.012" class="h">cd</text><text x="5.01" y="6.012" class="h">$REPOS</text><text x="11.022" y="6.012" class="j">/</text></svg><svg x="1036"><use xlink:href="#a"/><use xlink:href="#b" x="12.996" y="4.317"/><use xlink:href="#1" y="2.171"/><text y="6.012" class="g">▶</text><text x="2.004" y="6.012" class="h">cd</text><text x="5.01" y="6.012" class="h">$REPOS/g</text></svg><svg x="1110"><use xlink:href="#a"/><use xlink:href="#b" x="22.996" y="4.317"/><use xlink:href="#1" y="2.171"/><text y="6.012" class="g">▶</text><text x="2.004" y="6.012" class="h">cd</text><text x="5.01" y="6.012" class="h">$REPOS/github.com</text><text x="22.044" y="6.012" class="j">/</text></svg><svg x="1184"><use xlink:href="#a"/><use xlink:href="#b" x="23.996" y="4.317"/><use xlink:href="#1" y="2.171"/><text y="6.012" class="g">▶</text><text x="2.004" y="6.012" class="h">cd</text><text x="5.01" y="6.012" class="h">$REPOS/github.com/b</text></svg><svg x="1258"><use xlink:href="#a"/><use xlink:href="#b" x="24.996" y="4.317"/><use xlink:href="#1" y="2.171"/><text y="6.012" class="g">▶</text><text x="2.004" y="6.012" class="h">cd</text><text x="5.01" y="6.012" class="h">$REPOS/github.com/bj</text></svg><svg x="1332"><use xlink:href="#a"/><use xlink:href="#b" x="30.996" y="4.317"/><use xlink:href="#1" y="2.171"/><text y="6.012" class="g">▶</text><text x="2.004" y="6.012" class="h">cd</text><text x="5.01" y="6.012" class="h">$REPOS/github.com/bjerkio</text><text x="30.06" y="6.012" class="j">/</text></svg><svg x="1406"><use xlink:href="#a"/><use xlink:href="#b" x="31.996" y="4.317"/><use xlink:href="#1" y="2.171"/><text y="6.012" class="g">▶</text><text x="2.004" y="6.012" class="h">cd</text><text x="5.01" y="6.012" class="h">$REPOS/github.com/bjerkio/b</text></svg><svg x="1480"><use xlink:href="#a"/><use xlink:href="#b" x="32.996" y="4.317"/><use xlink:href="#1" y="2.171"/><text y="6.012" class="g">▶</text><text x="2.004" y="6.012" class="h">cd</text><text x="5.01" y="6.012" class="h">$REPOS/github.com/bjerkio/bo</text></svg><svg x="1554"><use xlink:href="#a"/><use xlink:href="#b" x="34.996" y="4.317"/><use xlink:href="#1" y="2.171"/><text y="6.012" class="g">▶</text><text x="2.004" y="6.012" class="h">cd</text><text x="5.01" y="6.012" class="h">$REPOS/github.com/bjerkio/bot</text><text x="34.068" y="6.012" class="j">/</text></svg><svg x="1628"><use xlink:href="#a"/><use xlink:href="#b" x="33.996" y="4.317"/><use xlink:href="#1" y="2.171"/><use xlink:href="#4" y="4.342"/></svg><svg x="1702"><use xlink:href="#a"/><use xlink:href="#b" x="33.996" y="4.317"/><use xlink:href="#1" y="2.171"/><use xlink:href="#4" y="4.342"/></svg><svg x="1776"><use xlink:href="#a"/><use xlink:href="#b" x="-.004" y="6.488"/><use xlink:href="#1" y="2.171"/><use xlink:href="#4" y="4.342"/></svg><svg x="1850"><use xlink:href="#a"/><use xlink:href="#b" x="-.004" y="6.488"/><use xlink:href="#1" y="2.171"/><use xlink:href="#4" y="4.342"/></svg><svg x="1924"><use xlink:href="#a"/><use xlink:href="#b" x="-.004" y="6.488"/><use xlink:href="#1" y="2.171"/><use xlink:href="#4" y="4.342"/></svg><svg x="1998"><use xlink:href="#a"/><use xlink:href="#b" x="-.004" y="6.488"/><use xlink:href="#1" y="2.171"/><use xlink:href="#4" y="4.342"/></svg><svg x="2072"><use xlink:href="#a"/><use xlink:href="#b" x="1.996" y="10.83"/><use xlink:href="#1" y="2.171"/><use xlink:href="#4" y="4.342"/><use xlink:href="#5" y="8.684"/><use xlink:href="#2" y="10.855"/></svg><svg x="2146"><use xlink:href="#a"/><use xlink:href="#b" x="1.996" y="10.83"/><use xlink:href="#1" y="2.171"/><use xlink:href="#4" y="4.342"/><use xlink:href="#5" y="8.684"/><use xlink:href="#2" y="10.855"/></svg><svg x="2220"><use xlink:href="#a"/><use xlink:href="#b" x="1.996" y="10.83"/><use xlink:href="#1" y="2.171"/><use xlink:href="#4" y="4.342"/><use xlink:href="#5" y="8.684"/><use xlink:href="#2" y="10.855"/></svg><svg x="2294"><use xlink:href="#a"/><use xlink:href="#b" x="56.996" y="10.83"/><use xlink:href="#1" y="2.171"/><use xlink:href="#4" y="4.342"/><use xlink:href="#5" y="8.684"/><text y="12.525" class="g">▶</text><path fill="#b9c0cb" d="M2.004 10.855h55v2.171h-55z"/><text x="2.004" y="12.525" style="white-space:pre" fill="#282d35">gh api -XPUT repos/:owner/:repo/collaborators/bjerk-bot</text></svg><svg x="2368"><use xlink:href="#a"/><use xlink:href="#b" x="56.996" y="10.83"/><use xlink:href="#1" y="2.171"/><use xlink:href="#4" y="4.342"/><use xlink:href="#5" y="8.684"/><use xlink:href="#6" y="10.855"/></svg><svg x="2442"><use xlink:href="#a"/><use xlink:href="#b" x="-.004" y="13.001"/><use xlink:href="#1" y="2.171"/><use xlink:href="#4" y="4.342"/><use xlink:href="#5" y="8.684"/><use xlink:href="#6" y="10.855"/></svg><svg x="2516"><use xlink:href="#a"/><use xlink:href="#b" x="-.004" y="13.001"/><use xlink:href="#1" y="2.171"/><use xlink:href="#4" y="4.342"/><use xlink:href="#5" y="8.684"/><use xlink:href="#6" y="10.855"/></svg><svg x="2590"><use xlink:href="#a"/><use xlink:href="#b" x="-.004" y="13.001"/></svg><svg x="2664"><use xlink:href="#a"/><use xlink:href="#b" x="-.004" y="17.343"/><use xlink:href="#7" y="13.026"/><use xlink:href="#8" y="15.197"/></svg><svg x="2738"><use xlink:href="#a"/><use xlink:href="#b" x=".996" y="30.369"/><use xlink:href="#7"/><use xlink:href="#8" y="2.171"/><text x="2.004" y="6.012" class="f">&quot;node_id&quot;</text><text x="11.022" y="6.012" class="j">:</text><text x="13.026" y="6.012" class="i">&quot;MDIwOlJlcG9zaXRvcnlJbnZpdGF0aW9uNDQxODIwMzY=&quot;</text><text x="59.118" y="6.012" class="j">,</text><text x="2.004" y="8.183" class="f">&quot;repository&quot;</text><text x="14.028" y="8.183" class="j">:</text><text x="16.032" y="8.183" class="j">{</text><text x="4.008" y="10.354" class="f">&quot;id&quot;</text><text x="8.016" y="10.354" class="j">:</text><text x="10.02" y="10.354" class="h">357678318</text><text x="19.038" y="10.354" class="j">,</text><text x="4.008" y="12.525" class="f">&quot;node_id&quot;</text><text x="13.026" y="12.525" class="j">:</text><text x="15.03" y="12.525" class="i">&quot;MDEwOlJlcG9zaXRvcnkzNTc2NzgzMTg=&quot;</text><text x="49.098" y="12.525" class="j">,</text><text x="4.008" y="14.696" class="f">&quot;name&quot;</text><text x="10.02" y="14.696" class="j">:</text><text x="12.024" y="14.696" class="i">&quot;bot&quot;</text><text x="17.034" y="14.696" class="j">,</text><text x="4.008" y="16.867" class="f">&quot;full_name&quot;</text><text x="15.03" y="16.867" class="j">:</text><text x="17.034" y="16.867" class="i">&quot;bjerkio/bot&quot;</text><text x="30.06" y="16.867" class="j">,</text><text x="4.008" y="19.038" class="f">&quot;private&quot;</text><text x="13.026" y="19.038" class="j">:</text><text x="15.03" y="19.038" style="white-space:pre" fill="#dbab79">false</text><text x="20.04" y="19.038" class="j">,</text><text x="4.008" y="21.209" class="f">&quot;owner&quot;</text><text x="11.022" y="21.209" class="j">:</text><text x="13.026" y="21.209" class="j">{</text><text x="6.012" y="23.38" class="f">&quot;login&quot;</text><text x="13.026" y="23.38" class="j">:</text><text x="15.03" y="23.38" class="i">&quot;bjerkio&quot;</text><text x="24.048" y="23.38" class="j">,</text><text x="6.012" y="25.551" class="f">&quot;id&quot;</text><text x="10.02" y="25.551" class="j">:</text><text x="12.024" y="25.551" class="h">39589442</text><text x="20.04" y="25.551" class="j">,</text><text x="6.012" y="27.722" class="f">&quot;node_id&quot;</text><text x="15.03" y="27.722" class="j">:</text><text x="17.034" y="27.722" class="i">&quot;MDEyOk9yZ2FuaXphdGlvbjM5NTg5NDQy&quot;</text><text x="51.102" y="27.722" class="j">,</text><text x="6.012" y="29.893" class="f">&quot;avatar_url&quot;</text><text x="18.036" y="29.893" class="j">:</text><text x="20.04" y="29.893" class="i">&quot;https://avatars.githubusercontent.com/u/39589442?v=4&quot;</text><text y="32.064" class="h">:</text></svg><svg x="2812"><use xlink:href="#a"/><use xlink:href="#b" x="-.004" y="13.001"/><use xlink:href="#1" y="2.171"/><use xlink:href="#4" y="4.342"/><use xlink:href="#5" y="8.684"/><use xlink:href="#6" y="10.855"/></svg><svg x="2886"><use xlink:href="#a"/><use xlink:href="#b" x="-.004" y="13.001"/><use xlink:href="#1" y="2.171"/><use xlink:href="#4" y="4.342"/><use xlink:href="#5" y="8.684"/><use xlink:href="#6" y="10.855"/></svg><svg x="2960"><use xlink:href="#a"/><use xlink:href="#b" x="-.004" y="13.001"/><use xlink:href="#1" y="2.171"/><use xlink:href="#4" y="4.342"/><use xlink:href="#5" y="8.684"/><use xlink:href="#6" y="10.855"/></svg><svg x="3034"><use xlink:href="#a"/><use xlink:href="#b" x="1.996" y="17.343"/><use xlink:href="#1" y="2.171"/><use xlink:href="#4" y="4.342"/><use xlink:href="#5" y="8.684"/><use xlink:href="#6" y="10.855"/><use xlink:href="#5" y="15.197"/><use xlink:href="#2" y="17.368"/></svg><svg x="3108"><use xlink:href="#a"/><use xlink:href="#b" x="1.996" y="17.343"/><use xlink:href="#1" y="2.171"/><use xlink:href="#4" y="4.342"/><use xlink:href="#5" y="8.684"/><use xlink:href="#6" y="10.855"/><use xlink:href="#5" y="15.197"/><use xlink:href="#2" y="17.368"/></svg><svg x="3182"><use xlink:href="#a"/><use xlink:href="#b" x="-.004" y="19.514"/><use xlink:href="#1" y="2.171"/><use xlink:href="#4" y="4.342"/><use xlink:href="#5" y="8.684"/><use xlink:href="#6" y="10.855"/><use xlink:href="#5" y="15.197"/><use xlink:href="#2" y="17.368"/></svg></svg></g></g></svg></svg>